<mxfile host="Electron" modified="2023-06-13T14:07:22.158Z" agent="Mozilla/5.0 (Windows NT 10.0; Win64; x64) AppleWebKit/537.36 (KHTML, like Gecko) draw.io/21.1.2 Chrome/106.0.5249.199 Electron/21.4.3 Safari/537.36" etag="imenPcIQhVVdqnah7HS7" version="21.1.2" type="device">
  <diagram name="Strona-1" id="-L44PbIpG_fRvy7FMJpt">
    <mxGraphModel dx="1185" dy="683" grid="1" gridSize="10" guides="1" tooltips="1" connect="1" arrows="1" fold="1" page="1" pageScale="1" pageWidth="1169" pageHeight="1654" math="0" shadow="0">
      <root>
        <mxCell id="0" />
        <mxCell id="1" parent="0" />
        <mxCell id="is0Sw9N0RyaOP79KxOXN-40" value="" style="whiteSpace=wrap;html=1;aspect=fixed;" vertex="1" parent="1">
          <mxGeometry x="240" y="160" width="80" height="80" as="geometry" />
        </mxCell>
        <mxCell id="is0Sw9N0RyaOP79KxOXN-42" value="" style="whiteSpace=wrap;html=1;aspect=fixed;" vertex="1" parent="1">
          <mxGeometry x="250" y="180" width="80" height="80" as="geometry" />
        </mxCell>
        <mxCell id="is0Sw9N0RyaOP79KxOXN-44" value="" style="whiteSpace=wrap;html=1;aspect=fixed;" vertex="1" parent="1">
          <mxGeometry x="260" y="200" width="80" height="80" as="geometry" />
        </mxCell>
        <mxCell id="is0Sw9N0RyaOP79KxOXN-46" value="" style="whiteSpace=wrap;html=1;aspect=fixed;" vertex="1" parent="1">
          <mxGeometry x="270" y="220" width="80" height="80" as="geometry" />
        </mxCell>
        <mxCell id="is0Sw9N0RyaOP79KxOXN-48" value="" style="whiteSpace=wrap;html=1;aspect=fixed;" vertex="1" parent="1">
          <mxGeometry x="280" y="240" width="80" height="80" as="geometry" />
        </mxCell>
        <mxCell id="is0Sw9N0RyaOP79KxOXN-1" value="" style="ellipse;whiteSpace=wrap;html=1;aspect=fixed;" vertex="1" parent="1">
          <mxGeometry x="850" y="110" width="40" height="40" as="geometry" />
        </mxCell>
        <mxCell id="is0Sw9N0RyaOP79KxOXN-2" value="" style="ellipse;whiteSpace=wrap;html=1;aspect=fixed;" vertex="1" parent="1">
          <mxGeometry x="850" y="280" width="40" height="40" as="geometry" />
        </mxCell>
        <mxCell id="is0Sw9N0RyaOP79KxOXN-3" value="" style="ellipse;whiteSpace=wrap;html=1;aspect=fixed;" vertex="1" parent="1">
          <mxGeometry x="850" y="230" width="40" height="40" as="geometry" />
        </mxCell>
        <mxCell id="is0Sw9N0RyaOP79KxOXN-4" value="" style="ellipse;whiteSpace=wrap;html=1;aspect=fixed;" vertex="1" parent="1">
          <mxGeometry x="850" y="160" width="40" height="40" as="geometry" />
        </mxCell>
        <mxCell id="is0Sw9N0RyaOP79KxOXN-5" value="" style="endArrow=none;dashed=1;html=1;dashPattern=1 3;strokeWidth=2;rounded=0;" edge="1" parent="1">
          <mxGeometry width="50" height="50" relative="1" as="geometry">
            <mxPoint x="870" y="224" as="sourcePoint" />
            <mxPoint x="870" y="205" as="targetPoint" />
          </mxGeometry>
        </mxCell>
        <mxCell id="is0Sw9N0RyaOP79KxOXN-6" value="" style="ellipse;whiteSpace=wrap;html=1;aspect=fixed;" vertex="1" parent="1">
          <mxGeometry x="850" y="330" width="40" height="40" as="geometry" />
        </mxCell>
        <mxCell id="is0Sw9N0RyaOP79KxOXN-7" value="" style="ellipse;whiteSpace=wrap;html=1;aspect=fixed;" vertex="1" parent="1">
          <mxGeometry x="1010" y="150" width="40" height="40" as="geometry" />
        </mxCell>
        <mxCell id="is0Sw9N0RyaOP79KxOXN-8" value="" style="ellipse;whiteSpace=wrap;html=1;aspect=fixed;" vertex="1" parent="1">
          <mxGeometry x="1010" y="270" width="40" height="40" as="geometry" />
        </mxCell>
        <mxCell id="is0Sw9N0RyaOP79KxOXN-9" value="" style="ellipse;whiteSpace=wrap;html=1;aspect=fixed;" vertex="1" parent="1">
          <mxGeometry x="1010" y="200" width="40" height="40" as="geometry" />
        </mxCell>
        <mxCell id="is0Sw9N0RyaOP79KxOXN-10" value="" style="endArrow=none;dashed=1;html=1;dashPattern=1 3;strokeWidth=2;rounded=0;" edge="1" parent="1">
          <mxGeometry width="50" height="50" relative="1" as="geometry">
            <mxPoint x="1030" y="264" as="sourcePoint" />
            <mxPoint x="1030" y="245" as="targetPoint" />
          </mxGeometry>
        </mxCell>
        <mxCell id="is0Sw9N0RyaOP79KxOXN-11" value="" style="shape=curlyBracket;whiteSpace=wrap;html=1;rounded=1;flipH=1;labelPosition=right;verticalLabelPosition=middle;align=left;verticalAlign=middle;" vertex="1" parent="1">
          <mxGeometry x="1050" y="150" width="20" height="160" as="geometry" />
        </mxCell>
        <mxCell id="is0Sw9N0RyaOP79KxOXN-12" value="" style="shape=curlyBracket;whiteSpace=wrap;html=1;rounded=1;labelPosition=left;verticalLabelPosition=middle;align=right;verticalAlign=middle;size=0.5;" vertex="1" parent="1">
          <mxGeometry x="830" y="110" width="20" height="210" as="geometry" />
        </mxCell>
        <mxCell id="is0Sw9N0RyaOP79KxOXN-14" value="" style="endArrow=none;dashed=1;html=1;rounded=0;exitX=1;exitY=0.5;exitDx=0;exitDy=0;entryX=0;entryY=0.5;entryDx=0;entryDy=0;opacity=50;" edge="1" parent="1" source="is0Sw9N0RyaOP79KxOXN-1" target="is0Sw9N0RyaOP79KxOXN-7">
          <mxGeometry width="50" height="50" relative="1" as="geometry">
            <mxPoint x="903" y="125" as="sourcePoint" />
            <mxPoint x="1023" y="85" as="targetPoint" />
          </mxGeometry>
        </mxCell>
        <mxCell id="is0Sw9N0RyaOP79KxOXN-15" value="" style="endArrow=none;dashed=1;html=1;rounded=0;exitX=1;exitY=0.5;exitDx=0;exitDy=0;opacity=50;entryX=0;entryY=0.5;entryDx=0;entryDy=0;" edge="1" parent="1" source="is0Sw9N0RyaOP79KxOXN-2" target="is0Sw9N0RyaOP79KxOXN-7">
          <mxGeometry width="50" height="50" relative="1" as="geometry">
            <mxPoint x="903" y="125" as="sourcePoint" />
            <mxPoint x="900" y="270" as="targetPoint" />
          </mxGeometry>
        </mxCell>
        <mxCell id="is0Sw9N0RyaOP79KxOXN-16" value="" style="endArrow=none;dashed=1;html=1;rounded=0;entryX=0;entryY=0.5;entryDx=0;entryDy=0;opacity=50;exitX=1;exitY=0.5;exitDx=0;exitDy=0;" edge="1" parent="1" source="is0Sw9N0RyaOP79KxOXN-1" target="is0Sw9N0RyaOP79KxOXN-9">
          <mxGeometry width="50" height="50" relative="1" as="geometry">
            <mxPoint x="903" y="125" as="sourcePoint" />
            <mxPoint x="1023" y="135" as="targetPoint" />
          </mxGeometry>
        </mxCell>
        <mxCell id="is0Sw9N0RyaOP79KxOXN-17" value="" style="endArrow=none;dashed=1;html=1;rounded=0;entryX=0;entryY=0.5;entryDx=0;entryDy=0;opacity=50;exitX=1;exitY=0.5;exitDx=0;exitDy=0;" edge="1" parent="1" source="is0Sw9N0RyaOP79KxOXN-1" target="is0Sw9N0RyaOP79KxOXN-8">
          <mxGeometry width="50" height="50" relative="1" as="geometry">
            <mxPoint x="903" y="125" as="sourcePoint" />
            <mxPoint x="1023" y="205" as="targetPoint" />
          </mxGeometry>
        </mxCell>
        <mxCell id="is0Sw9N0RyaOP79KxOXN-18" value="" style="endArrow=none;dashed=1;html=1;rounded=0;entryX=0;entryY=0.5;entryDx=0;entryDy=0;exitX=1;exitY=0.5;exitDx=0;exitDy=0;opacity=50;" edge="1" parent="1" source="is0Sw9N0RyaOP79KxOXN-4" target="is0Sw9N0RyaOP79KxOXN-7">
          <mxGeometry width="50" height="50" relative="1" as="geometry">
            <mxPoint x="904" y="185" as="sourcePoint" />
            <mxPoint x="1024" y="95" as="targetPoint" />
          </mxGeometry>
        </mxCell>
        <mxCell id="is0Sw9N0RyaOP79KxOXN-19" value="" style="endArrow=none;dashed=1;html=1;rounded=0;entryX=0;entryY=0.5;entryDx=0;entryDy=0;exitX=1;exitY=0.5;exitDx=0;exitDy=0;opacity=50;" edge="1" parent="1" source="is0Sw9N0RyaOP79KxOXN-4" target="is0Sw9N0RyaOP79KxOXN-9">
          <mxGeometry width="50" height="50" relative="1" as="geometry">
            <mxPoint x="904" y="185" as="sourcePoint" />
            <mxPoint x="1023" y="145" as="targetPoint" />
          </mxGeometry>
        </mxCell>
        <mxCell id="is0Sw9N0RyaOP79KxOXN-20" value="" style="endArrow=none;dashed=1;html=1;rounded=0;entryX=0;entryY=0.5;entryDx=0;entryDy=0;opacity=50;exitX=1;exitY=0.5;exitDx=0;exitDy=0;" edge="1" parent="1" source="is0Sw9N0RyaOP79KxOXN-4" target="is0Sw9N0RyaOP79KxOXN-8">
          <mxGeometry width="50" height="50" relative="1" as="geometry">
            <mxPoint x="904" y="185" as="sourcePoint" />
            <mxPoint x="1024" y="215" as="targetPoint" />
          </mxGeometry>
        </mxCell>
        <mxCell id="is0Sw9N0RyaOP79KxOXN-21" value="" style="endArrow=none;dashed=1;html=1;rounded=0;exitX=1;exitY=0.5;exitDx=0;exitDy=0;entryX=0;entryY=0.5;entryDx=0;entryDy=0;opacity=50;" edge="1" parent="1" source="is0Sw9N0RyaOP79KxOXN-6" target="is0Sw9N0RyaOP79KxOXN-7">
          <mxGeometry width="50" height="50" relative="1" as="geometry">
            <mxPoint x="904" y="185" as="sourcePoint" />
            <mxPoint x="1024" y="265" as="targetPoint" />
          </mxGeometry>
        </mxCell>
        <mxCell id="is0Sw9N0RyaOP79KxOXN-22" value="" style="endArrow=none;dashed=1;html=1;rounded=0;entryX=0;entryY=0.5;entryDx=0;entryDy=0;exitX=1;exitY=0.5;exitDx=0;exitDy=0;opacity=50;" edge="1" parent="1" source="is0Sw9N0RyaOP79KxOXN-3" target="is0Sw9N0RyaOP79KxOXN-9">
          <mxGeometry width="50" height="50" relative="1" as="geometry">
            <mxPoint x="904" y="255" as="sourcePoint" />
            <mxPoint x="1024" y="95" as="targetPoint" />
          </mxGeometry>
        </mxCell>
        <mxCell id="is0Sw9N0RyaOP79KxOXN-23" value="" style="endArrow=none;dashed=1;html=1;rounded=0;exitX=1;exitY=0.5;exitDx=0;exitDy=0;entryX=0;entryY=0.5;entryDx=0;entryDy=0;opacity=50;" edge="1" parent="1" source="is0Sw9N0RyaOP79KxOXN-3" target="is0Sw9N0RyaOP79KxOXN-7">
          <mxGeometry width="50" height="50" relative="1" as="geometry">
            <mxPoint x="904" y="255" as="sourcePoint" />
            <mxPoint x="1024" y="215" as="targetPoint" />
          </mxGeometry>
        </mxCell>
        <mxCell id="is0Sw9N0RyaOP79KxOXN-24" value="" style="endArrow=none;dashed=1;html=1;rounded=0;entryX=0;entryY=0.5;entryDx=0;entryDy=0;opacity=50;exitX=1;exitY=0.5;exitDx=0;exitDy=0;" edge="1" parent="1" source="is0Sw9N0RyaOP79KxOXN-3" target="is0Sw9N0RyaOP79KxOXN-8">
          <mxGeometry width="50" height="50" relative="1" as="geometry">
            <mxPoint x="904" y="255" as="sourcePoint" />
            <mxPoint x="1023" y="145" as="targetPoint" />
          </mxGeometry>
        </mxCell>
        <mxCell id="is0Sw9N0RyaOP79KxOXN-25" value="" style="endArrow=none;dashed=1;html=1;rounded=0;exitX=1;exitY=0.5;exitDx=0;exitDy=0;entryX=0;entryY=0.5;entryDx=0;entryDy=0;opacity=50;" edge="1" parent="1" source="is0Sw9N0RyaOP79KxOXN-2" target="is0Sw9N0RyaOP79KxOXN-8">
          <mxGeometry width="50" height="50" relative="1" as="geometry">
            <mxPoint x="904" y="255" as="sourcePoint" />
            <mxPoint x="1024" y="265" as="targetPoint" />
          </mxGeometry>
        </mxCell>
        <mxCell id="is0Sw9N0RyaOP79KxOXN-26" value="" style="endArrow=none;dashed=1;html=1;rounded=0;exitX=1;exitY=0.5;exitDx=0;exitDy=0;entryX=0;entryY=0.5;entryDx=0;entryDy=0;opacity=50;" edge="1" parent="1" source="is0Sw9N0RyaOP79KxOXN-2" target="is0Sw9N0RyaOP79KxOXN-9">
          <mxGeometry width="50" height="50" relative="1" as="geometry">
            <mxPoint x="900" y="360" as="sourcePoint" />
            <mxPoint x="1034" y="275" as="targetPoint" />
          </mxGeometry>
        </mxCell>
        <mxCell id="is0Sw9N0RyaOP79KxOXN-27" value="" style="endArrow=none;dashed=1;html=1;rounded=0;exitX=1;exitY=0.5;exitDx=0;exitDy=0;entryX=0;entryY=0.5;entryDx=0;entryDy=0;opacity=50;" edge="1" parent="1" source="is0Sw9N0RyaOP79KxOXN-6" target="is0Sw9N0RyaOP79KxOXN-8">
          <mxGeometry width="50" height="50" relative="1" as="geometry">
            <mxPoint x="900" y="310" as="sourcePoint" />
            <mxPoint x="1034" y="275" as="targetPoint" />
          </mxGeometry>
        </mxCell>
        <mxCell id="is0Sw9N0RyaOP79KxOXN-28" value="" style="endArrow=none;dashed=1;html=1;rounded=0;exitX=1;exitY=0.5;exitDx=0;exitDy=0;entryX=0;entryY=0.5;entryDx=0;entryDy=0;opacity=50;" edge="1" parent="1" source="is0Sw9N0RyaOP79KxOXN-6" target="is0Sw9N0RyaOP79KxOXN-9">
          <mxGeometry width="50" height="50" relative="1" as="geometry">
            <mxPoint x="900" y="310" as="sourcePoint" />
            <mxPoint x="1033" y="265" as="targetPoint" />
          </mxGeometry>
        </mxCell>
        <mxCell id="is0Sw9N0RyaOP79KxOXN-30" value="10" style="text;html=1;strokeColor=none;fillColor=none;align=center;verticalAlign=middle;whiteSpace=wrap;rounded=0;" vertex="1" parent="1">
          <mxGeometry x="1070" y="222.5" width="30" height="15" as="geometry" />
        </mxCell>
        <mxCell id="is0Sw9N0RyaOP79KxOXN-39" value="" style="whiteSpace=wrap;html=1;aspect=fixed;" vertex="1" parent="1">
          <mxGeometry x="40" y="160" width="160" height="160" as="geometry" />
        </mxCell>
        <mxCell id="is0Sw9N0RyaOP79KxOXN-49" value="" style="whiteSpace=wrap;html=1;aspect=fixed;" vertex="1" parent="1">
          <mxGeometry x="140" y="200" width="40" height="40" as="geometry" />
        </mxCell>
        <mxCell id="is0Sw9N0RyaOP79KxOXN-50" value="" style="endArrow=none;dashed=1;html=1;rounded=0;exitX=0;exitY=0;exitDx=0;exitDy=0;entryX=0;entryY=0;entryDx=0;entryDy=0;" edge="1" parent="1" source="is0Sw9N0RyaOP79KxOXN-49" target="is0Sw9N0RyaOP79KxOXN-51">
          <mxGeometry width="50" height="50" relative="1" as="geometry">
            <mxPoint x="310" y="310" as="sourcePoint" />
            <mxPoint x="230" y="170" as="targetPoint" />
          </mxGeometry>
        </mxCell>
        <mxCell id="is0Sw9N0RyaOP79KxOXN-51" value="" style="rounded=0;whiteSpace=wrap;html=1;strokeColor=none;" vertex="1" parent="1">
          <mxGeometry x="250" y="170" width="10" height="10" as="geometry" />
        </mxCell>
        <mxCell id="is0Sw9N0RyaOP79KxOXN-52" value="" style="endArrow=none;dashed=1;html=1;rounded=0;exitX=1;exitY=1;exitDx=0;exitDy=0;entryX=0;entryY=0;entryDx=0;entryDy=0;" edge="1" parent="1" source="is0Sw9N0RyaOP79KxOXN-49" target="is0Sw9N0RyaOP79KxOXN-51">
          <mxGeometry width="50" height="50" relative="1" as="geometry">
            <mxPoint x="260" y="260" as="sourcePoint" />
            <mxPoint x="310" y="210" as="targetPoint" />
          </mxGeometry>
        </mxCell>
        <mxCell id="is0Sw9N0RyaOP79KxOXN-53" value="" style="whiteSpace=wrap;html=1;aspect=fixed;" vertex="1" parent="1">
          <mxGeometry x="390" y="195" width="30" height="30" as="geometry" />
        </mxCell>
        <mxCell id="is0Sw9N0RyaOP79KxOXN-54" value="" style="whiteSpace=wrap;html=1;aspect=fixed;" vertex="1" parent="1">
          <mxGeometry x="400" y="205" width="30" height="30" as="geometry" />
        </mxCell>
        <mxCell id="is0Sw9N0RyaOP79KxOXN-55" value="" style="whiteSpace=wrap;html=1;aspect=fixed;" vertex="1" parent="1">
          <mxGeometry x="410" y="215" width="30" height="30" as="geometry" />
        </mxCell>
        <mxCell id="is0Sw9N0RyaOP79KxOXN-56" value="" style="whiteSpace=wrap;html=1;aspect=fixed;" vertex="1" parent="1">
          <mxGeometry x="420" y="225" width="30" height="30" as="geometry" />
        </mxCell>
        <mxCell id="is0Sw9N0RyaOP79KxOXN-57" value="" style="whiteSpace=wrap;html=1;aspect=fixed;" vertex="1" parent="1">
          <mxGeometry x="430" y="235" width="30" height="30" as="geometry" />
        </mxCell>
        <mxCell id="is0Sw9N0RyaOP79KxOXN-58" value="" style="whiteSpace=wrap;html=1;aspect=fixed;" vertex="1" parent="1">
          <mxGeometry x="440" y="245" width="30" height="30" as="geometry" />
        </mxCell>
        <mxCell id="is0Sw9N0RyaOP79KxOXN-59" value="" style="whiteSpace=wrap;html=1;aspect=fixed;" vertex="1" parent="1">
          <mxGeometry x="450" y="255" width="30" height="30" as="geometry" />
        </mxCell>
        <mxCell id="is0Sw9N0RyaOP79KxOXN-60" value="" style="whiteSpace=wrap;html=1;aspect=fixed;" vertex="1" parent="1">
          <mxGeometry x="330" y="290" width="20" height="20" as="geometry" />
        </mxCell>
        <mxCell id="is0Sw9N0RyaOP79KxOXN-61" value="" style="endArrow=none;dashed=1;html=1;rounded=0;exitX=0;exitY=0;exitDx=0;exitDy=0;entryX=0;entryY=0.25;entryDx=0;entryDy=0;" edge="1" parent="1" source="is0Sw9N0RyaOP79KxOXN-60" target="is0Sw9N0RyaOP79KxOXN-53">
          <mxGeometry width="50" height="50" relative="1" as="geometry">
            <mxPoint x="360" y="370" as="sourcePoint" />
            <mxPoint x="410" y="320" as="targetPoint" />
          </mxGeometry>
        </mxCell>
        <mxCell id="is0Sw9N0RyaOP79KxOXN-62" value="" style="endArrow=none;dashed=1;html=1;rounded=0;exitX=1;exitY=1;exitDx=0;exitDy=0;entryX=0;entryY=0.25;entryDx=0;entryDy=0;" edge="1" parent="1" source="is0Sw9N0RyaOP79KxOXN-60" target="is0Sw9N0RyaOP79KxOXN-53">
          <mxGeometry width="50" height="50" relative="1" as="geometry">
            <mxPoint x="360" y="370" as="sourcePoint" />
            <mxPoint x="410" y="320" as="targetPoint" />
          </mxGeometry>
        </mxCell>
        <mxCell id="is0Sw9N0RyaOP79KxOXN-63" value="" style="whiteSpace=wrap;html=1;aspect=fixed;" vertex="1" parent="1">
          <mxGeometry x="530" y="160" width="80" height="80" as="geometry" />
        </mxCell>
        <mxCell id="is0Sw9N0RyaOP79KxOXN-64" value="" style="whiteSpace=wrap;html=1;aspect=fixed;" vertex="1" parent="1">
          <mxGeometry x="540" y="180" width="80" height="80" as="geometry" />
        </mxCell>
        <mxCell id="is0Sw9N0RyaOP79KxOXN-65" value="" style="whiteSpace=wrap;html=1;aspect=fixed;" vertex="1" parent="1">
          <mxGeometry x="550" y="200" width="80" height="80" as="geometry" />
        </mxCell>
        <mxCell id="is0Sw9N0RyaOP79KxOXN-66" value="" style="whiteSpace=wrap;html=1;aspect=fixed;" vertex="1" parent="1">
          <mxGeometry x="560" y="220" width="80" height="80" as="geometry" />
        </mxCell>
        <mxCell id="is0Sw9N0RyaOP79KxOXN-67" value="" style="whiteSpace=wrap;html=1;aspect=fixed;" vertex="1" parent="1">
          <mxGeometry x="570" y="240" width="80" height="80" as="geometry" />
        </mxCell>
        <mxCell id="is0Sw9N0RyaOP79KxOXN-68" value="" style="rounded=0;whiteSpace=wrap;html=1;strokeColor=none;" vertex="1" parent="1">
          <mxGeometry x="540" y="170" width="10" height="10" as="geometry" />
        </mxCell>
        <mxCell id="is0Sw9N0RyaOP79KxOXN-69" value="" style="whiteSpace=wrap;html=1;aspect=fixed;" vertex="1" parent="1">
          <mxGeometry x="680" y="195" width="30" height="30" as="geometry" />
        </mxCell>
        <mxCell id="is0Sw9N0RyaOP79KxOXN-70" value="" style="whiteSpace=wrap;html=1;aspect=fixed;" vertex="1" parent="1">
          <mxGeometry x="690" y="205" width="30" height="30" as="geometry" />
        </mxCell>
        <mxCell id="is0Sw9N0RyaOP79KxOXN-71" value="" style="whiteSpace=wrap;html=1;aspect=fixed;" vertex="1" parent="1">
          <mxGeometry x="700" y="215" width="30" height="30" as="geometry" />
        </mxCell>
        <mxCell id="is0Sw9N0RyaOP79KxOXN-72" value="" style="whiteSpace=wrap;html=1;aspect=fixed;" vertex="1" parent="1">
          <mxGeometry x="710" y="225" width="30" height="30" as="geometry" />
        </mxCell>
        <mxCell id="is0Sw9N0RyaOP79KxOXN-73" value="" style="whiteSpace=wrap;html=1;aspect=fixed;" vertex="1" parent="1">
          <mxGeometry x="720" y="235" width="30" height="30" as="geometry" />
        </mxCell>
        <mxCell id="is0Sw9N0RyaOP79KxOXN-74" value="" style="whiteSpace=wrap;html=1;aspect=fixed;" vertex="1" parent="1">
          <mxGeometry x="730" y="245" width="30" height="30" as="geometry" />
        </mxCell>
        <mxCell id="is0Sw9N0RyaOP79KxOXN-75" value="" style="whiteSpace=wrap;html=1;aspect=fixed;" vertex="1" parent="1">
          <mxGeometry x="740" y="255" width="30" height="30" as="geometry" />
        </mxCell>
        <mxCell id="is0Sw9N0RyaOP79KxOXN-76" value="" style="whiteSpace=wrap;html=1;aspect=fixed;" vertex="1" parent="1">
          <mxGeometry x="620" y="290" width="20" height="20" as="geometry" />
        </mxCell>
        <mxCell id="is0Sw9N0RyaOP79KxOXN-77" value="" style="endArrow=none;dashed=1;html=1;rounded=0;exitX=0;exitY=0;exitDx=0;exitDy=0;entryX=0;entryY=0.25;entryDx=0;entryDy=0;" edge="1" parent="1" source="is0Sw9N0RyaOP79KxOXN-76" target="is0Sw9N0RyaOP79KxOXN-69">
          <mxGeometry width="50" height="50" relative="1" as="geometry">
            <mxPoint x="650" y="370" as="sourcePoint" />
            <mxPoint x="700" y="320" as="targetPoint" />
          </mxGeometry>
        </mxCell>
        <mxCell id="is0Sw9N0RyaOP79KxOXN-78" value="" style="endArrow=none;dashed=1;html=1;rounded=0;exitX=1;exitY=1;exitDx=0;exitDy=0;entryX=0;entryY=0.25;entryDx=0;entryDy=0;" edge="1" parent="1" source="is0Sw9N0RyaOP79KxOXN-76" target="is0Sw9N0RyaOP79KxOXN-69">
          <mxGeometry width="50" height="50" relative="1" as="geometry">
            <mxPoint x="650" y="370" as="sourcePoint" />
            <mxPoint x="700" y="320" as="targetPoint" />
          </mxGeometry>
        </mxCell>
        <mxCell id="is0Sw9N0RyaOP79KxOXN-79" value="500" style="text;html=1;strokeColor=none;fillColor=none;align=center;verticalAlign=middle;whiteSpace=wrap;rounded=0;" vertex="1" parent="1">
          <mxGeometry x="800" y="207.5" width="30" height="15" as="geometry" />
        </mxCell>
        <mxCell id="is0Sw9N0RyaOP79KxOXN-80" value="" style="endArrow=none;dashed=1;html=1;rounded=0;" edge="1" parent="1">
          <mxGeometry width="50" height="50" relative="1" as="geometry">
            <mxPoint x="770" y="290" as="sourcePoint" />
            <mxPoint x="820" y="350" as="targetPoint" />
          </mxGeometry>
        </mxCell>
        <mxCell id="is0Sw9N0RyaOP79KxOXN-81" value="" style="endArrow=none;dashed=1;html=1;rounded=0;" edge="1" parent="1">
          <mxGeometry width="50" height="50" relative="1" as="geometry">
            <mxPoint x="770" y="190" as="sourcePoint" />
            <mxPoint x="820" y="130" as="targetPoint" />
          </mxGeometry>
        </mxCell>
        <mxCell id="is0Sw9N0RyaOP79KxOXN-82" value="" style="endArrow=none;dashed=1;html=1;rounded=0;" edge="1" parent="1">
          <mxGeometry width="50" height="50" relative="1" as="geometry">
            <mxPoint x="480" y="290" as="sourcePoint" />
            <mxPoint x="520" y="320" as="targetPoint" />
          </mxGeometry>
        </mxCell>
        <mxCell id="is0Sw9N0RyaOP79KxOXN-83" value="" style="endArrow=none;dashed=1;html=1;rounded=0;" edge="1" parent="1">
          <mxGeometry width="50" height="50" relative="1" as="geometry">
            <mxPoint x="480" y="190" as="sourcePoint" />
            <mxPoint x="520" y="160" as="targetPoint" />
          </mxGeometry>
        </mxCell>
        <mxCell id="is0Sw9N0RyaOP79KxOXN-84" value="Obraz wejściowy, 28x28x1" style="text;html=1;align=center;verticalAlign=middle;resizable=0;points=[];autosize=1;strokeColor=none;fillColor=none;" vertex="1" parent="1">
          <mxGeometry x="40" y="320" width="160" height="30" as="geometry" />
        </mxCell>
        <mxCell id="is0Sw9N0RyaOP79KxOXN-85" value="Conv2D, 5x5" style="text;html=1;strokeColor=none;fillColor=none;align=center;verticalAlign=middle;whiteSpace=wrap;rounded=0;" vertex="1" parent="1">
          <mxGeometry x="240" y="320" width="120" height="30" as="geometry" />
        </mxCell>
        <mxCell id="is0Sw9N0RyaOP79KxOXN-86" value="MaxPooling, 2x2" style="text;html=1;strokeColor=none;fillColor=none;align=center;verticalAlign=middle;whiteSpace=wrap;rounded=0;" vertex="1" parent="1">
          <mxGeometry x="390" y="320" width="100" height="30" as="geometry" />
        </mxCell>
        <mxCell id="is0Sw9N0RyaOP79KxOXN-87" value="Conv2D, 5x5" style="text;html=1;strokeColor=none;fillColor=none;align=center;verticalAlign=middle;whiteSpace=wrap;rounded=0;" vertex="1" parent="1">
          <mxGeometry x="530" y="320" width="120" height="30" as="geometry" />
        </mxCell>
        <mxCell id="is0Sw9N0RyaOP79KxOXN-88" value="MaxPooling, 2x2" style="text;html=1;strokeColor=none;fillColor=none;align=center;verticalAlign=middle;whiteSpace=wrap;rounded=0;" vertex="1" parent="1">
          <mxGeometry x="675" y="320" width="100" height="30" as="geometry" />
        </mxCell>
      </root>
    </mxGraphModel>
  </diagram>
</mxfile>
